# xmcd
#
# Track frame offsets: 
#        150
#        11584
#        21218
#        32011
#        42552
#        54241
#        64449
#        76182
#        88209
#        100309
#        113137
#        126252
#        137327
#        149240
#        160971
#        172059
#        184145
#        195975
#        210002
#        221869
#
# Disc length: 3144 seconds
#
# Revision: 0
# Processed by: cddbd v1.5.1PL2 Copyright (c) Steve Scherf et al.
# Submitted via: ExactAudioCopy v0.90b4
#
DISCID=210c4614
DTITLE=Tex Ritter - Famous Country Music Makers
DYEAR=2004
DGENRE=Country
TTITLE0=High Noon (1952)
TTITLE1=Boogie Woogie Cowbaoy (1950)
TTITLE2=I've Got Five Dollars and it's Saturday Night (1950)
TTITLE3=Tennessee Blues (1951)
TTITLE4=I've Had Enough of Your Two Timin' (1948)
TTITLE5=Careless Hands (1950)
TTITLE6=Stay Away From My Heart (1950)
TTITLE7=Big Blue Diamonds (1950)
TTITLE8=Coal Smoke, Valve Oil and Steam (1950)
TTITLE9=Dallas Darlin' (1948)
TTITLE10=Pecos Bill (1948)
TTITLE11=He's a Cowboy Actioneer (1950)
TTITLE12=Never Mind My Tears (1948)
TTITLE13=Rock all the Babies to Sleep (1951)
TTITLE14=Tenaha, Timpson, Bobo and Blair (1948)
TTITLE15=Rock and Rye (1948)
TTITLE16=When My Blue Moon Turns to Gold (1952)
TTITLE17=The Letter Edged in Black (1952)
TTITLE18=When it's Springtime in the Rockies (1952)
TTITLE19=Deck of Cards (1948)
EXTD=Castle Pulse PLSCD 653\nSanctuary Records 2004
EXTT0=
EXTT1=
EXTT2=
EXTT3=
EXTT4=
EXTT5=
EXTT6=
EXTT7=
EXTT8=
EXTT9=
EXTT10=
EXTT11=
EXTT12=
EXTT13=
EXTT14=
EXTT15=
EXTT16=
EXTT17=
EXTT18=
EXTT19=
PLAYORDER=
